# xmcd CD database file
#
# Track frame offsets:
#	150
#	35768
#	67044
#	95923
#	118156
#	148045
#	171324
#	190559
#	239985
#	289313
#
# Disc length: 4277 seconds
#
# Revision: 2
# Processed by: cddbd v1.5.2PL0 Copyright (c) Steve Scherf et al.
# Submitted via: CDex 1.79
#
DISCID=a710b30a
DTITLE=Jimmy Smith - Seven Classic Albums Vol 3   CD1
DYEAR=1900
DGENRE=Jazz
TTITLE0=Soft Winds
TTITLE1=Hollerin' and Screamin'
TTITLE2='Round About Midnight
TTITLE3=Star Eyes
TTITLE4=Darn That Dream
TTITLE5=Street of Dreams
TTITLE6=Cha Cha
TTITLE7=After Hours
TTITLE8=My Funny Valentine
TTITLE9=Slightly Monkish 
EXTD=
EXTT0=
EXTT1=
EXTT2=
EXTT3=
EXTT4=
EXTT5=
EXTT6=
EXTT7=
EXTT8=
EXTT9=
PLAYORDER=
